<?xml version="1.0" encoding="UTF-8"?>
<!-- Generator: https://ezgif.com/webp-to-svg -->
<svg version="1.1" xmlns="http://www.w3.org/2000/svg" width="240" height="240">
<path d="M0 0 C79.2 0 158.4 0 240 0 C240 79.2 240 158.4 240 240 C160.8 240 81.6 240 0 240 C0 160.8 0 81.6 0 0 Z " fill="#E30612" transform="translate(0,0)"/>
<path d="M0 0 C4.07 2 7.93 4.29 11.81 6.62 C13.55 7.65 15.28 8.67 17.01 9.69 C18.81 10.75 20.61 11.81 22.4 12.88 C27 15.6 31.63 18.25 36.25 20.91 C39.51 22.78 42.76 24.66 46.01 26.54 C49.76 28.71 53.52 30.86 57.3 32.99 C58.85 33.87 60.39 34.75 61.94 35.62 C62.62 36 63.31 36.38 64.02 36.77 C67.97 39.04 70.02 40.91 72 45 C72.39 47.92 72.39 47.92 72.4 51.18 C72.42 53.02 72.42 53.02 72.44 54.89 C72.44 56.21 72.44 57.52 72.43 58.88 C72.44 60.25 72.44 61.62 72.45 62.99 C72.46 65.86 72.46 68.72 72.45 71.59 C72.43 75.26 72.45 78.93 72.48 82.6 C72.5 85.43 72.5 88.26 72.5 91.09 C72.5 93.09 72.51 95.1 72.53 97.11 C72.52 98.33 72.51 99.56 72.5 100.82 C72.5 101.9 72.5 102.97 72.5 104.08 C71.88 107.71 70.52 109.36 68 112 C65.57 113.71 65.57 113.71 62.84 115.24 C61.81 115.83 60.78 116.41 59.72 117.01 C58.07 117.93 58.07 117.93 56.38 118.88 C54.62 119.87 52.87 120.86 51.11 121.86 C49.29 122.89 47.47 123.92 45.64 124.94 C39.88 128.19 34.16 131.5 28.44 134.81 C26.82 135.74 26.82 135.74 25.16 136.69 C20.35 139.46 15.56 142.25 10.84 145.16 C10.06 145.64 9.29 146.11 8.49 146.6 C7.1 147.45 5.71 148.32 4.34 149.21 C-0.02 151.88 -2.95 152.4 -8 152 C-10.95 150.77 -10.95 150.77 -13.89 149.03 C-15 148.38 -16.11 147.74 -17.25 147.07 C-18.44 146.36 -19.63 145.65 -20.81 144.94 C-22.05 144.21 -23.29 143.48 -24.53 142.76 C-27.09 141.26 -29.65 139.75 -32.2 138.24 C-35.81 136.1 -39.45 134 -43.09 131.91 C-49.41 128.3 -55.71 124.66 -62 121 C-62.83 120.52 -63.66 120.04 -64.52 119.54 C-66.64 118.31 -68.76 117.06 -70.88 115.81 C-71.99 115.16 -73.1 114.51 -74.24 113.83 C-76.97 112.02 -78.93 110.53 -81 108 C-81.51 105.12 -81.51 105.12 -81.52 101.75 C-81.53 100.49 -81.54 99.22 -81.56 97.92 C-81.55 96.54 -81.54 95.16 -81.53 93.79 C-81.53 92.37 -81.54 90.95 -81.54 89.53 C-81.55 86.57 -81.54 83.6 -81.52 80.63 C-81.5 76.83 -81.51 73.03 -81.54 69.24 C-81.55 66.31 -81.55 63.38 -81.54 60.46 C-81.53 59.06 -81.54 57.66 -81.55 56.26 C-81.56 54.3 -81.54 52.34 -81.52 50.38 C-81.51 49.27 -81.51 48.15 -81.51 47 C-80.88 43.31 -79.57 41.67 -77 39 C-74.39 37.2 -74.39 37.2 -71.4 35.54 C-69.72 34.6 -69.72 34.6 -68.01 33.63 C-66.8 32.96 -65.59 32.29 -64.38 31.62 C-63.12 30.92 -61.87 30.22 -60.61 29.51 C-58.68 28.42 -56.74 27.34 -54.8 26.25 C-49.35 23.21 -43.95 20.1 -38.55 16.97 C-35.32 15.1 -32.08 13.24 -28.84 11.38 C-25.23 9.3 -21.63 7.19 -18.07 5.03 C-16.97 4.38 -16.97 4.38 -15.85 3.71 C-14.55 2.94 -13.26 2.15 -11.98 1.35 C-7.54 -1.26 -4.91 -1.46 0 0 Z " fill="#FEFAFB" transform="translate(124,45)"/>
<path d="M0 0 C1.91 1.23 3.81 2.47 5.7 3.73 C7.67 4.85 9.65 5.95 11.64 7.03 C23.75 13.79 35.79 20.63 47.7 27.73 C46.25 32.07 42.98 33.03 39.13 35.05 C37.5 35.93 35.86 36.82 34.23 37.7 C33.34 38.18 32.46 38.66 31.54 39.16 C25.33 42.59 19.23 46.23 13.11 49.82 C11.2 50.94 9.29 52.06 7.38 53.16 C5.62 54.19 3.88 55.25 2.16 56.33 C0.99 57.05 0.99 57.05 -0.21 57.78 C-0.88 58.2 -1.56 58.63 -2.25 59.07 C-5.22 60.03 -6.56 59.12 -9.3 57.73 C-11.11 56.79 -12.89 55.82 -14.66 54.83 C-15.69 54.25 -16.72 53.68 -17.77 53.09 C-18.86 52.48 -19.94 51.86 -21.05 51.23 C-22.17 50.61 -23.28 49.98 -24.43 49.34 C-32.86 44.59 -41.22 39.72 -49.54 34.78 C-52.44 33.06 -55.37 31.4 -58.3 29.73 C-58.3 29.07 -58.3 28.41 -58.3 27.73 C-57.82 27.47 -57.34 27.21 -56.85 26.95 C-45.32 20.69 -33.92 14.24 -22.62 7.6 C-20.73 6.49 -18.83 5.39 -16.93 4.31 C-14.3 2.79 -14.3 2.79 -11.99 1 C-7.31 -2.3 -5.13 -2.77 0 0 Z " fill="#E30612" transform="translate(124.3046875,63.265625)"/>
<path d="M0 0 C3.95 1.73 7.54 3.97 11.17 6.27 C15.14 8.67 17.82 9.87 22.43 9.07 C26 7.41 29.27 5.27 32.6 3.18 C33.28 2.77 33.96 2.36 34.66 1.94 C35.26 1.56 35.87 1.17 36.49 0.78 C39.23 -0.22 40.66 0.19 43.43 1.07 C45.58 2.18 47.69 3.38 49.76 4.63 C50.35 4.98 50.93 5.33 51.54 5.69 C53.4 6.81 55.26 7.94 57.12 9.07 C58.99 10.19 60.86 11.32 62.74 12.44 C64.43 13.46 66.12 14.48 67.81 15.5 C69.32 16.4 70.86 17.28 72.43 18.07 C72.43 18.73 72.43 19.39 72.43 20.07 C71.71 20.48 70.99 20.89 70.24 21.31 C68.06 22.56 65.88 23.8 63.7 25.05 C61.17 26.49 58.64 27.92 56.1 29.34 C49.84 32.88 43.7 36.49 37.72 40.49 C23.03 50.2 23.03 50.2 16.68 49.87 C13.62 48.4 11.12 46.72 8.49 44.6 C4.14 41.35 -0.73 38.87 -5.44 36.19 C-7.51 34.98 -9.58 33.76 -11.65 32.54 C-18.9 28.27 -26.22 24.15 -33.57 20.07 C-33.57 19.41 -33.57 18.75 -33.57 18.07 C-32.91 17.7 -32.26 17.33 -31.58 16.95 C-28.58 15.26 -25.57 13.57 -22.57 11.88 C-21.54 11.3 -20.51 10.72 -19.45 10.13 C-18.43 9.56 -17.42 8.99 -16.38 8.4 C-15.38 7.84 -14.39 7.28 -13.36 6.7 C-10.88 5.25 -8.51 3.7 -6.13 2.08 C-3.75 0.59 -2.86 0.07 0 0 Z " fill="#E30612" transform="translate(99.56640625,129.93359375)"/>
<path d="M0 0 C0 9.24 0 18.48 0 28 C-16.44 19.41 -16.44 19.41 -24 14 C-21.76 11.57 -19.47 9.96 -16.62 8.3 C-15.78 7.81 -14.94 7.33 -14.08 6.83 C-13.21 6.33 -12.34 5.83 -11.44 5.31 C-10.56 4.8 -9.69 4.29 -8.78 3.76 C-2.26 0 -2.26 0 0 0 Z " fill="#E30711" transform="translate(180,107)"/>
<path d="M0 0 C3.52 1.41 6.42 2.72 9.64 4.6 C10.49 5.09 11.33 5.58 12.19 6.09 C13.06 6.59 13.92 7.1 14.81 7.62 C15.7 8.14 16.58 8.66 17.49 9.19 C19.66 10.46 21.83 11.73 24 13 C19.73 16.64 15.14 19.43 10.31 22.25 C9.54 22.71 8.77 23.17 7.97 23.64 C7.24 24.07 6.5 24.51 5.74 24.95 C5.07 25.35 4.4 25.74 3.71 26.15 C2 27 2 27 0 27 C0 18.09 0 9.18 0 0 Z " fill="#E30711" transform="translate(59,107)"/>
</svg>
